<?xml version="1.0" encoding="UTF-8" standalone="no"?><svg xmlns="http://www.w3.org/2000/svg" xmlns:xlink="http://www.w3.org/1999/xlink" contentScriptType="application/ecmascript" contentStyleType="text/css" height="1166px" preserveAspectRatio="none" style="width:794px;height:1166px;" version="1.1" viewBox="0 0 794 1166" width="794px" zoomAndPan="magnify"><defs><filter height="300%" id="f17e6qohzz0a3o" width="300%" x="-1" y="-1"><feGaussianBlur result="blurOut" stdDeviation="2.0"/><feColorMatrix in="blurOut" result="blurOut2" type="matrix" values="0 0 0 0 0 0 0 0 0 0 0 0 0 0 0 0 0 0 .4 0"/><feOffset dx="4.0" dy="4.0" in="blurOut2" result="blurOut3"/><feBlend in="SourceGraphic" in2="blurOut3" mode="normal"/></filter></defs><g><ellipse cx="303.668" cy="18" fill="#000000" filter="url(#f17e6qohzz0a3o)" rx="10" ry="10" style="stroke: none; stroke-width: 1.0;"/><rect fill="#0090D5" filter="url(#f17e6qohzz0a3o)" height="36.2969" rx="12.5" ry="12.5" style="stroke: #14639C; stroke-width: 1.5;" width="76" x="265.668" y="69"/><text fill="#FFFFFF" font-family="sans-serif" font-size="14" lengthAdjust="spacingAndGlyphs" textLength="56" x="275.668" y="91.9951">发起请求</text><polygon fill="#0090D5" filter="url(#f17e6qohzz0a3o)" points="303.668,152,315.668,164,303.668,176,291.668,164,303.668,152" style="stroke: #14639C; stroke-width: 1.5;"/><rect fill="#0090D5" filter="url(#f17e6qohzz0a3o)" height="36.2969" rx="12.5" ry="12.5" style="stroke: #14639C; stroke-width: 1.5;" width="379" x="358.168" y="146"/><text fill="#FFFFFF" font-family="sans-serif" font-size="14" lengthAdjust="spacingAndGlyphs" textLength="359" x="368.168" y="168.9951">requestData = transformRequestData(requestData)</text><rect fill="#000000" filter="url(#f17e6qohzz0a3o)" height="8" style="stroke: none; stroke-width: 1.0;" width="80" x="332.668" y="236"/><polygon fill="#0090D5" filter="url(#f17e6qohzz0a3o)" points="372.668,299.5,384.668,311.5,372.668,323.5,360.668,311.5,372.668,299.5" style="stroke: #14639C; stroke-width: 1.5;"/><rect fill="#0090D5" filter="url(#f17e6qohzz0a3o)" height="52.5938" rx="12.5" ry="12.5" style="stroke: #14639C; stroke-width: 1.5;" width="170" x="148.668" y="285"/><text fill="#FFFFFF" font-family="sans-serif" font-size="14" lengthAdjust="spacingAndGlyphs" textLength="150" x="158.668" y="307.9951">对 requestUrl 发出请求</text><text fill="#FFFFFF" font-family="sans-serif" font-size="14" lengthAdjust="spacingAndGlyphs" textLength="146" x="160.668" y="324.292">携带参数 requestData</text><polygon fill="#0090D5" filter="url(#f17e6qohzz0a3o)" points="230.668,398,242.668,410,230.668,422,218.668,410,230.668,398" style="stroke: #14639C; stroke-width: 1.5;"/><rect fill="#000000" filter="url(#f17e6qohzz0a3o)" height="8" style="stroke: none; stroke-width: 1.0;" width="80" x="334.668" y="482"/><rect fill="#0090D5" filter="url(#f17e6qohzz0a3o)" height="52.5938" rx="12.5" ry="12.5" style="stroke: #14639C; stroke-width: 1.5;" width="305" x="60.1678" y="510"/><text fill="#FFFFFF" font-family="sans-serif" font-size="14" lengthAdjust="spacingAndGlyphs" textLength="281" x="70.1678" y="532.9951">resolveRequestErrorMessage(response)</text><text fill="#FFFFFF" font-family="sans-serif" font-size="14" lengthAdjust="spacingAndGlyphs" textLength="126" x="149.6678" y="549.292">获取错误信息并显示</text><ellipse cx="295.668" cy="1145" fill="none" filter="url(#f17e6qohzz0a3o)" rx="10" ry="10" style="stroke: #000000; stroke-width: 1.0;"/><ellipse cx="296.168" cy="1145.5" fill="#000000" rx="6" ry="6" style="stroke: none; stroke-width: 1.0;"/><rect fill="#0090D5" filter="url(#f17e6qohzz0a3o)" height="36.2969" rx="12.5" ry="12.5" style="stroke: #14639C; stroke-width: 1.5;" width="223" x="263.168" y="392"/><text fill="#FFFFFF" font-family="sans-serif" font-size="14" lengthAdjust="spacingAndGlyphs" textLength="203" x="273.168" y="414.9951">requestHandler(requestData)</text><rect fill="#0090D5" filter="url(#f17e6qohzz0a3o)" height="36.2969" rx="12.5" ry="12.5" style="stroke: #14639C; stroke-width: 1.5;" width="248" x="257.668" y="583"/><text fill="#FFFFFF" font-family="sans-serif" font-size="14" lengthAdjust="spacingAndGlyphs" textLength="228" x="267.668" y="605.9951">获取到原始响应数据 responseData</text><polygon fill="#0090D5" filter="url(#f17e6qohzz0a3o)" points="381.668,660,393.668,672,381.668,684,369.668,672,381.668,660" style="stroke: #14639C; stroke-width: 1.5;"/><rect fill="#0090D5" filter="url(#f17e6qohzz0a3o)" height="36.2969" rx="12.5" ry="12.5" style="stroke: #14639C; stroke-width: 1.5;" width="178" x="294.668" y="760"/><text fill="#FFFFFF" font-family="sans-serif" font-size="14" lengthAdjust="spacingAndGlyphs" textLength="158" x="304.668" y="782.9951">直接使用 responseData</text><rect fill="#000000" filter="url(#f17e6qohzz0a3o)" height="8" style="stroke: none; stroke-width: 1.0;" width="80" x="389.668" y="837"/><rect fill="#0090D5" filter="url(#f17e6qohzz0a3o)" height="36.2969" rx="12.5" ry="12.5" style="stroke: #14639C; stroke-width: 1.5;" width="415" x="368.168" y="704"/><text fill="#FFFFFF" font-family="sans-serif" font-size="14" lengthAdjust="spacingAndGlyphs" textLength="395" x="378.168" y="726.9951">responseData = transformResponseData(responseData)</text><rect fill="#0090D5" filter="url(#f17e6qohzz0a3o)" height="52.5938" rx="12.5" ry="12.5" style="stroke: #14639C; stroke-width: 1.5;" width="301" x="279.168" y="886"/><text fill="#FFFFFF" font-family="sans-serif" font-size="14" lengthAdjust="spacingAndGlyphs" textLength="281" x="289.168" y="908.9951">使用 contentDataMap 映射 responseData</text><text fill="#FFFFFF" font-family="sans-serif" font-size="14" lengthAdjust="spacingAndGlyphs" textLength="174" x="342.668" y="925.292">生成最终数据 contentData</text><polygon fill="#0090D5" filter="url(#f17e6qohzz0a3o)" points="429.668,980,441.668,992,429.668,1004,417.668,992,429.668,980" style="stroke: #14639C; stroke-width: 1.5;"/><rect fill="#0090D5" filter="url(#f17e6qohzz0a3o)" height="36.2969" rx="12.5" ry="12.5" style="stroke: #14639C; stroke-width: 1.5;" width="254" x="367.668" y="1058"/><text fill="#FFFFFF" font-family="sans-serif" font-size="14" lengthAdjust="spacingAndGlyphs" textLength="230" x="377.668" y="1080.9951">挂载在 slot-scope 的 content-data</text><rect fill="#0090D5" filter="url(#f17e6qohzz0a3o)" height="36.2969" rx="12.5" ry="12.5" style="stroke: #14639C; stroke-width: 1.5;" width="104" x="243.668" y="1058"/><text fill="#FFFFFF" font-family="sans-serif" font-size="14" lengthAdjust="spacingAndGlyphs" textLength="84" x="253.668" y="1080.9951">渲染表格视图</text><!--link start to 发起请求--><path d="M303.668,28.04 C303.668,37.16 303.668,51.61 303.668,63.8 " fill="none" id="start-发起请求" style="stroke: #333333; stroke-width: 1.0;"/><polygon fill="#333333" points="303.668,68.87,307.668,59.87,303.668,63.87,299.668,59.87,303.668,68.87" style="stroke: #333333; stroke-width: 1.0;"/><!--link 发起请求 to #91807--><path d="M303.668,105.02 C303.668,117.46 303.668,134.24 303.668,146.55 " fill="none" id="发起请求-#91807" style="stroke: #333333; stroke-width: 1.0;"/><polygon fill="#333333" points="303.668,151.86,307.668,142.86,303.668,146.86,299.668,142.86,303.668,151.86" style="stroke: #333333; stroke-width: 1.0;"/><text fill="#000000" font-family="sans-serif" font-size="11" lengthAdjust="spacingAndGlyphs" textLength="139" x="144.2524" y="144.86">transformRequestData ?</text><!--link #91807 to requestData = transformRequestData(requestData)--><path d="M315.768,164 C324.494,164 337.411,164 352.759,164 " fill="none" id="#91807-requestData = transformRequestData(requestData)" style="stroke: #333333; stroke-width: 1.0;"/><polygon fill="#333333" points="358.055,164,349.055,160,353.055,164,349.055,168,358.055,164" style="stroke: #333333; stroke-width: 1.0;"/><text fill="#000000" font-family="sans-serif" font-size="11" lengthAdjust="spacingAndGlyphs" textLength="21" x="326.418" y="158.2104">Yes</text><!--link requestData = transformRequestData(requestData) to TRANSREQ--><path d="M507.079,182.163 C467.488,198.905 409.704,223.339 384.814,233.864 " fill="none" id="requestData = transformRequestData(requestData)-TRANSREQ" style="stroke: #333333; stroke-width: 1.0;"/><polygon fill="#333333" points="380.02,235.891,389.8672,236.0707,384.6253,233.944,386.752,228.7021,380.02,235.891" style="stroke: #333333; stroke-width: 1.0;"/><!--link #91807 to TRANSREQ--><path d="M309.082,170.807 C321.635,184.269 352.683,217.566 366.203,232.067 " fill="none" id="#91807-TRANSREQ" style="stroke: #333333; stroke-width: 1.0;"/><polygon fill="#333333" points="369.796,235.92,366.5821,226.6103,366.3855,232.2637,360.732,232.0671,369.796,235.92" style="stroke: #333333; stroke-width: 1.0;"/><text fill="#000000" font-family="sans-serif" font-size="11" lengthAdjust="spacingAndGlyphs" textLength="15" x="351.668" y="213.2104">No</text><!--link TRANSREQ to #91815--><path d="M372.668,244.352 C372.668,253.171 372.668,277.477 372.668,294.036 " fill="none" id="TRANSREQ-#91815" style="stroke: #333333; stroke-width: 1.0;"/><polygon fill="#333333" points="372.668,299.322,376.668,290.322,372.668,294.322,368.668,290.322,372.668,299.322" style="stroke: #333333; stroke-width: 1.0;"/><text fill="#000000" font-family="sans-serif" font-size="11" lengthAdjust="spacingAndGlyphs" textLength="98" x="392.8805" y="290.2">requestHandler ?</text><!--link 对 requestUrl 发出请求\n携带参数 requestData to #91815--><path d="M324.262,311.5 C338.593,311.5 351.603,311.5 360.517,311.5 " fill="none" id="对 requestUrl 发出请求\n携带参数 requestData-#91815" style="stroke: #333333; stroke-width: 1.0;"/><polygon fill="#333333" points="318.927,311.5,327.927,315.5,323.927,311.5,327.927,307.5,318.927,311.5" style="stroke: #333333; stroke-width: 1.0;"/><text fill="#000000" font-family="sans-serif" font-size="11" lengthAdjust="spacingAndGlyphs" textLength="15" x="332.168" y="305.7104">No</text><!--link 对 requestUrl 发出请求\n携带参数 requestData to #91821--><path d="M232.872,338.107 C232.328,355.612 231.624,378.259 231.159,393.188 " fill="none" id="对 requestUrl 发出请求\n携带参数 requestData-#91821" style="stroke: #333333; stroke-width: 1.0;"/><polygon fill="#333333" points="231,398.316,235.2783,389.4449,231.1557,393.3184,227.2822,389.1958,231,398.316" style="stroke: #333333; stroke-width: 1.0;"/><text fill="#000000" font-family="sans-serif" font-size="11" lengthAdjust="spacingAndGlyphs" textLength="210" x="0.3935" y="393.1241">validateResponse(response) 验证通过</text><!--link #91821 to RESPONSE--><path d="M236.571,416.141 C240.859,419.728 246.898,424.482 252.668,428 C290.526,451.08 339.25,471.247 361.961,480.15 " fill="none" id="#91821-RESPONSE" style="stroke: #333333; stroke-width: 1.0;"/><polygon fill="#333333" points="366.652,481.973,359.712,474.9847,361.9915,480.1619,356.8143,482.4415,366.652,481.973" style="stroke: #333333; stroke-width: 1.0;"/><text fill="#000000" font-family="sans-serif" font-size="11" lengthAdjust="spacingAndGlyphs" textLength="21" x="319.668" y="459.2104">Yes</text><!--link #91821 to resolveRequestErrorMessage(response) \n获取错误信息并显示--><path d="M229.255,420.769 C226.665,438.686 221.056,477.482 217.079,504.989 " fill="none" id="#91821-resolveRequestErrorMessage(response) \n获取错误信息并显示" style="stroke: #333333; stroke-width: 1.0;"/><polygon fill="#333333" points="216.357,509.986,221.6041,501.6512,217.0727,505.0375,213.6865,500.5061,216.357,509.986" style="stroke: #333333; stroke-width: 1.0;"/><text fill="#000000" font-family="sans-serif" font-size="11" lengthAdjust="spacingAndGlyphs" textLength="15" x="226.668" y="459.2104">No</text><!--link resolveRequestErrorMessage(response) \n获取错误信息并显示 to end--><path d="M212.668,563.365 C212.668,583.877 212.668,613.273 212.668,639 C212.668,639 212.668,639 212.668,1077 C212.668,1111.7775 257.334,1131.5863 281.133,1139.6726 " fill="none" id="resolveRequestErrorMessage(response) \n获取错误信息并显示-end" style="stroke: #333333; stroke-width: 1.0;"/><polygon fill="#333333" points="286.147,1141.3076,278.8321,1134.7127,281.3937,1139.7563,276.3501,1142.3179,286.147,1141.3076" style="stroke: #333333; stroke-width: 1.0;"/><!--link #91815 to requestHandler(requestData)--><path d="M372.897,323.57 C373.216,338.93 373.798,367.047 374.208,386.819 " fill="none" id="#91815-requestHandler(requestData)" style="stroke: #333333; stroke-width: 1.0;"/><polygon fill="#333333" points="374.314,391.904,378.128,382.8236,374.2111,386.9051,370.1297,382.9882,374.314,391.904" style="stroke: #333333; stroke-width: 1.0;"/><text fill="#000000" font-family="sans-serif" font-size="11" lengthAdjust="spacingAndGlyphs" textLength="21" x="375.668" y="369.2104">Yes</text><!--link requestHandler(requestData) to RESPONSE--><path d="M374.668,428.163 C374.668,443.288 374.668,464.692 374.668,476.446 " fill="none" id="requestHandler(requestData)-RESPONSE" style="stroke: #333333; stroke-width: 1.0;"/><polygon fill="#333333" points="374.668,481.628,378.668,472.628,374.668,476.628,370.668,472.628,374.668,481.628" style="stroke: #333333; stroke-width: 1.0;"/><!--link RESPONSE to 获取到原始响应数据 responseData--><path d="M374.87,490.26 C375.655,502.933 378.546,549.61 380.295,577.846 " fill="none" id="RESPONSE-获取到原始响应数据 responseData" style="stroke: #333333; stroke-width: 1.0;"/><polygon fill="#333333" points="380.608,582.891,384.0449,573.6613,380.2994,577.9005,376.0601,574.155,380.608,582.891" style="stroke: #333333; stroke-width: 1.0;"/><!--link 获取到原始响应数据 responseData to #91835--><path d="M381.668,619.056 C381.668,629.931 381.668,643.944 381.668,654.674 " fill="none" id="获取到原始响应数据 responseData-#91835" style="stroke: #333333; stroke-width: 1.0;"/><polygon fill="#333333" points="381.668,659.952,385.668,650.952,381.668,654.952,377.668,650.952,381.668,659.952" style="stroke: #333333; stroke-width: 1.0;"/><text fill="#000000" font-family="sans-serif" font-size="11" lengthAdjust="spacingAndGlyphs" textLength="149" x="212.6461" y="653.4202">transformResponseData ?</text><!--link #91835 to 直接使用 responseData--><path d="M373.872,676.225 C364.04,680.773 347.585,690.099 340.668,704 C333.54,718.325 333.996,725.457 340.668,740 C343.482,746.135 347.871,751.636 352.79,756.404 " fill="none" id="#91835-直接使用 responseData" style="stroke: #333333; stroke-width: 1.0;"/><polygon fill="#333333" points="356.638,759.906,352.6737,750.8902,352.94,756.5408,347.2894,756.807,356.638,759.906" style="stroke: #333333; stroke-width: 1.0;"/><text fill="#000000" font-family="sans-serif" font-size="11" lengthAdjust="spacingAndGlyphs" textLength="15" x="341.668" y="726.2104">No</text><!--link 直接使用 responseData to TRANS_RES--><path d="M396.727,796.317 C405.691,808.205 417.151,823.401 423.921,832.379 " fill="none" id="直接使用 responseData-TRANS_RES" style="stroke: #333333; stroke-width: 1.0;"/><polygon fill="#333333" points="427.154,836.666,424.9282,827.0719,424.1433,832.6741,418.5411,831.8891,427.154,836.666" style="stroke: #333333; stroke-width: 1.0;"/><!--link #91835 to responseData = transformResponseData(responseData)--><path d="M390.508,675.187 C410.207,680.061 459.342,692.218 502.048,702.785 " fill="none" id="#91835-responseData = transformResponseData(responseData)" style="stroke: #333333; stroke-width: 1.0;"/><polygon fill="#333333" points="506.955,703.999,499.1796,697.9539,502.1014,702.7978,497.2576,705.7196,506.955,703.999" style="stroke: #333333; stroke-width: 1.0;"/><text fill="#000000" font-family="sans-serif" font-size="11" lengthAdjust="spacingAndGlyphs" textLength="21" x="426.73" y="686.8034">Yes</text><!--link responseData = transformResponseData(responseData) to TRANS_RES--><path d="M554.438,740.013 C521.655,766.284 460.173,815.554 437.95,833.363 " fill="none" id="responseData = transformResponseData(responseData)-TRANS_RES" style="stroke: #333333; stroke-width: 1.0;"/><polygon fill="#333333" points="433.828,836.667,443.3523,834.1593,437.7294,833.5399,438.3488,827.917,433.828,836.667" style="stroke: #333333; stroke-width: 1.0;"/><!--link TRANS_RES to 使用 contentDataMap 映射 responseData\n生成最终数据 contentData--><path d="M429.668,845.352 C429.668,851.824 429.668,866.638 429.668,880.609 " fill="none" id="TRANS_RES-使用 contentDataMap 映射 responseData\n生成最终数据 contentData" style="stroke: #333333; stroke-width: 1.0;"/><polygon fill="#333333" points="429.668,885.701,433.668,876.701,429.668,880.701,425.668,876.701,429.668,885.701" style="stroke: #333333; stroke-width: 1.0;"/><!--link 使用 contentDataMap 映射 responseData\n生成最终数据 contentData to #91847--><path d="M429.668,939.306 C429.668,951.005 429.668,964.483 429.668,974.742 " fill="none" id="使用 contentDataMap 映射 responseData\n生成最终数据 contentData-#91847" style="stroke: #333333; stroke-width: 1.0;"/><polygon fill="#333333" points="429.668,979.788,433.668,970.788,429.668,974.788,425.668,970.788,429.668,979.788" style="stroke: #333333; stroke-width: 1.0;"/><text fill="#000000" font-family="sans-serif" font-size="11" lengthAdjust="spacingAndGlyphs" textLength="90" x="319.9805" y="970.2067">使用自定义 slot ?</text><!--link #91847 to 挂载在 slot-scope 的 content-data --><path d="M434.553,999.163 C443.611,1010.59 463.399,1035.553 477.804,1053.726 " fill="none" id="#91847-挂载在 slot-scope 的 content-data " style="stroke: #333333; stroke-width: 1.0;"/><polygon fill="#333333" points="480.974,1057.7242,478.5186,1048.1863,477.8683,1053.8057,472.249,1053.1554,480.974,1057.7242" style="stroke: #333333; stroke-width: 1.0;"/><text fill="#000000" font-family="sans-serif" font-size="11" lengthAdjust="spacingAndGlyphs" textLength="21" x="465.668" y="1035.2104">Yes</text><!--link 挂载在 slot-scope 的 content-data  to end--><path d="M443.937,1094.0803 C399.459,1109.0553 337.707,1129.8461 310.057,1139.1554 " fill="none" id="挂载在 slot-scope 的 content-data -end" style="stroke: #333333; stroke-width: 1.0;"/><polygon fill="#333333" points="304.997,1140.859,314.8029,1141.7777,309.7356,1139.2633,312.2499,1134.196,304.997,1140.859" style="stroke: #333333; stroke-width: 1.0;"/><!--link #91847 to 渲染表格视图--><path d="M422.839,997.179 C405.657,1007.693 359.749,1035.786 328.067,1055.1734 " fill="none" id="#91847-渲染表格视图" style="stroke: #333333; stroke-width: 1.0;"/><polygon fill="#333333" points="323.501,1057.9675,333.2655,1056.6814,327.7658,1055.3576,329.0896,1049.8578,323.501,1057.9675" style="stroke: #333333; stroke-width: 1.0;"/><text fill="#000000" font-family="sans-serif" font-size="11" lengthAdjust="spacingAndGlyphs" textLength="15" x="379.668" y="1035.2104">No</text><!--link 渲染表格视图 to end--><path d="M295.668,1094.2542 C295.668,1105.2159 295.668,1119.2398 295.668,1129.6017 " fill="none" id="渲染表格视图-end" style="stroke: #333333; stroke-width: 1.0;"/><polygon fill="#333333" points="295.668,1134.6509,299.668,1125.6509,295.668,1129.6509,291.668,1125.6509,295.668,1134.6509" style="stroke: #333333; stroke-width: 1.0;"/><!--
@startuml
skinparam interface {
  backgroundColor RosyBrown
  borderColor orange
}
skinparam activity {
  roundCorner 15
  FontColor          #fff
  FontSize           14
  BackgroundColor    #0090D5
  BorderColor        #14639c
  ArrowColor         #333
}

(*) - -> "发起请求"

if "transformRequestData ?" then
  -right->[Yes] "requestData = transformRequestData(requestData)"
  - -> ===TRANSREQ===
else
  - ->[No] ===TRANSREQ===
endif

if "requestHandler ?" then
  -left->[No] "对 requestUrl 发出请求\n携带参数 requestData"
  if "validateResponse(response) 验证通过"
    - ->[Yes] ===RESPONSE===
  else
    - ->[No] "resolveRequestErrorMessage(response) \n获取错误信息并显示"
    - ->(*)
  endif
else
  - ->[Yes] "requestHandler(requestData)"
  - -> ===RESPONSE===
endif

- -> "获取到原始响应数据 responseData"

if "transformResponseData ?" then
  - ->[No] "直接使用 responseData"
  - -> ===TRANS_RES===
else
  -right->[Yes] "responseData = transformResponseData(responseData)"
  - -> ===TRANS_RES===
endif

- -> "使用 contentDataMap 映射 responseData\n生成最终数据 contentData"

if "使用自定义 slot ?" then
  - ->[Yes] "挂载在 slot-scope 的 content-data "
- ->(*)
else
  - ->[No] "渲染表格视图"
- ->(*)
endif
@enduml

PlantUML version 1.2018.09beta4(Unknown compile time)
(GPL source distribution)
Java Runtime: Java(TM) SE Runtime Environment
JVM: Java HotSpot(TM) 64-Bit Server VM
Java Version: 1.7.0_25-b15
Operating System: Linux
Default Encoding: UTF-8
Language: en
Country: US
--></g></svg>