<?xml version="1.0" encoding="UTF-8" standalone="no"?><svg xmlns="http://www.w3.org/2000/svg" xmlns:xlink="http://www.w3.org/1999/xlink" contentScriptType="application/ecmascript" contentStyleType="text/css" height="1231px" preserveAspectRatio="none" style="width:818px;height:1231px;" version="1.1" viewBox="0 0 818 1231" width="818px" zoomAndPan="magnify"><defs><filter height="300%" id="f12uglyg4i7wgp" width="300%" x="-1" y="-1"><feGaussianBlur result="blurOut" stdDeviation="2.0"/><feColorMatrix in="blurOut" result="blurOut2" type="matrix" values="0 0 0 0 0 0 0 0 0 0 0 0 0 0 0 0 0 0 .4 0"/><feOffset dx="4.0" dy="4.0" in="blurOut2" result="blurOut3"/><feBlend in="SourceGraphic" in2="blurOut3" mode="normal"/></filter></defs><g><ellipse cx="260" cy="18" fill="#000000" filter="url(#f12uglyg4i7wgp)" rx="10" ry="10" style="stroke: none; stroke-width: 1.0;"/><rect fill="#0090D5" filter="url(#f12uglyg4i7wgp)" height="36.2969" rx="12.5" ry="12.5" style="stroke: #14639C; stroke-width: 1.5;" width="76" x="222" y="69"/><text fill="#FFFFFF" font-family="sans-serif" font-size="14" lengthAdjust="spacingAndGlyphs" textLength="56" x="232" y="91.9951">发起请求</text><polygon fill="#0090D5" filter="url(#f12uglyg4i7wgp)" points="260,152,272,164,260,176,248,164,260,152" style="stroke: #14639C; stroke-width: 1.5;"/><rect fill="#0090D5" filter="url(#f12uglyg4i7wgp)" height="36.2969" rx="12.5" ry="12.5" style="stroke: #14639C; stroke-width: 1.5;" width="379" x="314.5" y="146"/><text fill="#FFFFFF" font-family="sans-serif" font-size="14" lengthAdjust="spacingAndGlyphs" textLength="359" x="324.5" y="168.9951">requestData = transformRequestData(requestData)</text><rect fill="#000000" filter="url(#f12uglyg4i7wgp)" height="8" style="stroke: none; stroke-width: 1.0;" width="80" x="289" y="236"/><polygon fill="#0090D5" filter="url(#f12uglyg4i7wgp)" points="329,299.5,341,311.5,329,323.5,317,311.5,329,299.5" style="stroke: #14639C; stroke-width: 1.5;"/><rect fill="#0090D5" filter="url(#f12uglyg4i7wgp)" height="52.5938" rx="12.5" ry="12.5" style="stroke: #14639C; stroke-width: 1.5;" width="170" x="106" y="285"/><text fill="#FFFFFF" font-family="sans-serif" font-size="14" lengthAdjust="spacingAndGlyphs" textLength="150" x="116" y="307.9951">对 requestUrl 发出请求</text><text fill="#FFFFFF" font-family="sans-serif" font-size="14" lengthAdjust="spacingAndGlyphs" textLength="146" x="118" y="324.292">携带参数 requestData</text><rect fill="#000000" filter="url(#f12uglyg4i7wgp)" height="8" style="stroke: none; stroke-width: 1.0;" width="80" x="191" y="469"/><rect fill="#0090D5" filter="url(#f12uglyg4i7wgp)" height="36.2969" rx="12.5" ry="12.5" style="stroke: #14639C; stroke-width: 1.5;" width="223" x="220.5" y="392"/><text fill="#FFFFFF" font-family="sans-serif" font-size="14" lengthAdjust="spacingAndGlyphs" textLength="203" x="230.5" y="414.9951">requestHandler(requestData)</text><polygon fill="#0090D5" filter="url(#f12uglyg4i7wgp)" points="231,518,243,530,231,542,219,530,231,518" style="stroke: #14639C; stroke-width: 1.5;"/><rect fill="#0090D5" filter="url(#f12uglyg4i7wgp)" height="52.5938" rx="12.5" ry="12.5" style="stroke: #14639C; stroke-width: 1.5;" width="305" x="54.5" y="652"/><text fill="#FFFFFF" font-family="sans-serif" font-size="14" lengthAdjust="spacingAndGlyphs" textLength="281" x="64.5" y="674.9951">resolveRequestErrorMessage(response)</text><text fill="#FFFFFF" font-family="sans-serif" font-size="14" lengthAdjust="spacingAndGlyphs" textLength="126" x="144" y="691.292">获取错误信息并显示</text><ellipse cx="290" cy="1210" fill="none" filter="url(#f12uglyg4i7wgp)" rx="10" ry="10" style="stroke: #000000; stroke-width: 1.0;"/><ellipse cx="290.5" cy="1210.5" fill="#000000" rx="6" ry="6" style="stroke: none; stroke-width: 1.0;"/><rect fill="#0090D5" filter="url(#f12uglyg4i7wgp)" height="36.2969" rx="12.5" ry="12.5" style="stroke: #14639C; stroke-width: 1.5;" width="248" x="248" y="596"/><text fill="#FFFFFF" font-family="sans-serif" font-size="14" lengthAdjust="spacingAndGlyphs" textLength="228" x="258" y="618.9951">获取到原始响应数据 responseData</text><polygon fill="#0090D5" filter="url(#f12uglyg4i7wgp)" points="376,725,388,737,376,749,364,737,376,725" style="stroke: #14639C; stroke-width: 1.5;"/><rect fill="#0090D5" filter="url(#f12uglyg4i7wgp)" height="36.2969" rx="12.5" ry="12.5" style="stroke: #14639C; stroke-width: 1.5;" width="178" x="282" y="769"/><text fill="#FFFFFF" font-family="sans-serif" font-size="14" lengthAdjust="spacingAndGlyphs" textLength="158" x="292" y="791.9951">直接使用 responseData</text><rect fill="#000000" filter="url(#f12uglyg4i7wgp)" height="8" style="stroke: none; stroke-width: 1.0;" width="80" x="354" y="902"/><rect fill="#0090D5" filter="url(#f12uglyg4i7wgp)" height="36.2969" rx="12.5" ry="12.5" style="stroke: #14639C; stroke-width: 1.5;" width="415" x="392.5" y="825"/><text fill="#FFFFFF" font-family="sans-serif" font-size="14" lengthAdjust="spacingAndGlyphs" textLength="395" x="402.5" y="847.9951">responseData = transformResponseData(responseData)</text><rect fill="#0090D5" filter="url(#f12uglyg4i7wgp)" height="52.5938" rx="12.5" ry="12.5" style="stroke: #14639C; stroke-width: 1.5;" width="301" x="243.5" y="951"/><text fill="#FFFFFF" font-family="sans-serif" font-size="14" lengthAdjust="spacingAndGlyphs" textLength="281" x="253.5" y="973.9951">使用 contentDataMap 映射 responseData</text><text fill="#FFFFFF" font-family="sans-serif" font-size="14" lengthAdjust="spacingAndGlyphs" textLength="174" x="307" y="990.292">生成最终数据 contentData</text><polygon fill="#0090D5" filter="url(#f12uglyg4i7wgp)" points="394,1045,406,1057,394,1069,382,1057,394,1045" style="stroke: #14639C; stroke-width: 1.5;"/><rect fill="#0090D5" filter="url(#f12uglyg4i7wgp)" height="36.2969" rx="12.5" ry="12.5" style="stroke: #14639C; stroke-width: 1.5;" width="104" x="238" y="1123"/><text fill="#FFFFFF" font-family="sans-serif" font-size="14" lengthAdjust="spacingAndGlyphs" textLength="84" x="248" y="1145.9951">渲染表格视图</text><rect fill="#0090D5" filter="url(#f12uglyg4i7wgp)" height="36.2969" rx="12.5" ry="12.5" style="stroke: #14639C; stroke-width: 1.5;" width="254" x="362" y="1123"/><text fill="#FFFFFF" font-family="sans-serif" font-size="14" lengthAdjust="spacingAndGlyphs" textLength="230" x="372" y="1145.9951">挂载在 slot-scope 的 content-data</text><!--link start to 发起请求--><path d="M260,28.04 C260,37.16 260,51.61 260,63.8 " fill="none" id="start-发起请求" style="stroke: #333333; stroke-width: 1.0;"/><polygon fill="#333333" points="260,68.87,264,59.87,260,63.87,256,59.87,260,68.87" style="stroke: #333333; stroke-width: 1.0;"/><!--link 发起请求 to #118831--><path d="M260,105.02 C260,117.46 260,134.24 260,146.55 " fill="none" id="发起请求-#118831" style="stroke: #333333; stroke-width: 1.0;"/><polygon fill="#333333" points="260,151.86,264,142.86,260,146.86,256,142.86,260,151.86" style="stroke: #333333; stroke-width: 1.0;"/><text fill="#000000" font-family="sans-serif" font-size="11" lengthAdjust="spacingAndGlyphs" textLength="139" x="100.5844" y="144.86">transformRequestData ?</text><!--link #118831 to requestData = transformRequestData(requestData)--><path d="M272.1,164 C280.826,164 293.743,164 309.091,164 " fill="none" id="#118831-requestData = transformRequestData(requestData)" style="stroke: #333333; stroke-width: 1.0;"/><polygon fill="#333333" points="314.387,164,305.387,160,309.387,164,305.387,168,314.387,164" style="stroke: #333333; stroke-width: 1.0;"/><text fill="#000000" font-family="sans-serif" font-size="11" lengthAdjust="spacingAndGlyphs" textLength="21" x="282.75" y="158.2104">Yes</text><!--link requestData = transformRequestData(requestData) to TRANSREQ--><path d="M463.412,182.16 C423.82,198.9 366.036,223.339 341.146,233.864 " fill="none" id="requestData = transformRequestData(requestData)-TRANSREQ" style="stroke: #333333; stroke-width: 1.0;"/><polygon fill="#333333" points="336.352,235.891,346.1992,236.0707,340.9573,233.944,343.084,228.7021,336.352,235.891" style="stroke: #333333; stroke-width: 1.0;"/><!--link #118831 to TRANSREQ--><path d="M265.414,170.81 C277.967,184.27 309.015,217.57 322.535,232.067 " fill="none" id="#118831-TRANSREQ" style="stroke: #333333; stroke-width: 1.0;"/><polygon fill="#333333" points="326.128,235.92,322.9159,226.6097,322.7182,232.2631,317.0648,232.0654,326.128,235.92" style="stroke: #333333; stroke-width: 1.0;"/><text fill="#000000" font-family="sans-serif" font-size="11" lengthAdjust="spacingAndGlyphs" textLength="15" x="308" y="213.2104">No</text><!--link TRANSREQ to #118839--><path d="M329,244.352 C329,253.171 329,277.477 329,294.036 " fill="none" id="TRANSREQ-#118839" style="stroke: #333333; stroke-width: 1.0;"/><polygon fill="#333333" points="329,299.322,333,290.322,329,294.322,325,290.322,329,299.322" style="stroke: #333333; stroke-width: 1.0;"/><text fill="#000000" font-family="sans-serif" font-size="11" lengthAdjust="spacingAndGlyphs" textLength="98" x="349.2125" y="290.2">requestHandler ?</text><!--link 对 requestUrl 发出请求\n携带参数 requestData to #118839--><path d="M281.233,311.5 C295.185,311.5 307.853,311.5 316.632,311.5 " fill="none" id="对 requestUrl 发出请求\n携带参数 requestData-#118839" style="stroke: #333333; stroke-width: 1.0;"/><polygon fill="#333333" points="276.04,311.5,285.04,315.5,281.04,311.5,285.04,307.5,276.04,311.5" style="stroke: #333333; stroke-width: 1.0;"/><text fill="#000000" font-family="sans-serif" font-size="11" lengthAdjust="spacingAndGlyphs" textLength="15" x="289" y="305.7104">No</text><!--link 对 requestUrl 发出请求\n携带参数 requestData to RESPONSE--><path d="M193.133,338.215 C195.591,361.945 200.566,397.947 210,428 C214.199,441.375 221.755,455.861 226.566,464.422 " fill="none" id="对 requestUrl 发出请求\n携带参数 requestData-RESPONSE" style="stroke: #333333; stroke-width: 1.0;"/><polygon fill="#333333" points="229.153,468.923,228.1371,459.1267,226.6619,464.5878,221.2008,463.1125,229.153,468.923" style="stroke: #333333; stroke-width: 1.0;"/><!--link #118839 to requestHandler(requestData)--><path d="M329.333,323.196 C329.806,338.422 330.685,366.704 331.304,386.627 " fill="none" id="#118839-requestHandler(requestData)" style="stroke: #333333; stroke-width: 1.0;"/><polygon fill="#333333" points="331.464,391.753,335.1818,382.6328,331.3083,386.7554,327.1857,382.8819,331.464,391.753" style="stroke: #333333; stroke-width: 1.0;"/><text fill="#000000" font-family="sans-serif" font-size="11" lengthAdjust="spacingAndGlyphs" textLength="21" x="332" y="369.2104">Yes</text><!--link requestHandler(requestData) to RESPONSE--><path d="M303.597,428.154 C282.419,440.945 254.783,457.636 240.489,466.269 " fill="none" id="requestHandler(requestData)-RESPONSE" style="stroke: #333333; stroke-width: 1.0;"/><polygon fill="#333333" points="236.181,468.871,245.953,467.6432,240.4613,466.2866,241.8179,460.7948,236.181,468.871" style="stroke: #333333; stroke-width: 1.0;"/><!--link RESPONSE to #118850--><path d="M231,477.276 C231,484.075 231,500.12 231,512.552 " fill="none" id="RESPONSE-#118850" style="stroke: #333333; stroke-width: 1.0;"/><polygon fill="#333333" points="231,517.621,235,508.621,231,512.621,227,508.621,231,517.621" style="stroke: #333333; stroke-width: 1.0;"/><text fill="#000000" font-family="sans-serif" font-size="11" lengthAdjust="spacingAndGlyphs" textLength="210" x="0.9844" y="512.4046">validateResponse(response) 验证通过</text><!--link #118850 to resolveRequestErrorMessage(response) \n获取错误信息并显示--><path d="M229.425,540.612 C225.961,561.761 217.55,613.1 212.071,646.544 " fill="none" id="#118850-resolveRequestErrorMessage(response) \n获取错误信息并显示" style="stroke: #333333; stroke-width: 1.0;"/><polygon fill="#333333" points="211.218,651.751,216.6208,643.5163,212.0266,646.8168,208.726,642.2226,211.218,651.751" style="stroke: #333333; stroke-width: 1.0;"/><text fill="#000000" font-family="sans-serif" font-size="11" lengthAdjust="spacingAndGlyphs" textLength="15" x="227" y="573.2104">No</text><!--link resolveRequestErrorMessage(response) \n获取错误信息并显示 to end--><path d="M207,705.325 C207,726.892 207,758.451 207,786 C207,786 207,786 207,1142 C207,1176.7775 251.666,1196.5863 275.465,1204.6726 " fill="none" id="resolveRequestErrorMessage(response) \n获取错误信息并显示-end" style="stroke: #333333; stroke-width: 1.0;"/><polygon fill="#333333" points="280.479,1206.3076,273.1624,1199.7147,275.7253,1204.7576,270.6824,1207.3206,280.479,1206.3076" style="stroke: #333333; stroke-width: 1.0;"/><!--link #118850 to 获取到原始响应数据 responseData--><path d="M238.186,535.179 C256.339,545.736 304.967,574.017 338.317,593.411 " fill="none" id="#118850-获取到原始响应数据 responseData" style="stroke: #333333; stroke-width: 1.0;"/><polygon fill="#333333" points="342.712,595.968,336.9433,587.9854,338.3899,593.4542,332.9211,594.9008,342.712,595.968" style="stroke: #333333; stroke-width: 1.0;"/><text fill="#000000" font-family="sans-serif" font-size="11" lengthAdjust="spacingAndGlyphs" textLength="21" x="307" y="573.2104">Yes</text><!--link 获取到原始响应数据 responseData to #118859--><path d="M372.565,632.08 C373.338,655.48 374.717,697.196 375.471,720.01 " fill="none" id="获取到原始响应数据 responseData-#118859" style="stroke: #333333; stroke-width: 1.0;"/><polygon fill="#333333" points="375.64,725.114,379.3421,715.9874,375.4757,720.1167,371.3464,716.2503,375.64,725.114" style="stroke: #333333; stroke-width: 1.0;"/><text fill="#000000" font-family="sans-serif" font-size="11" lengthAdjust="spacingAndGlyphs" textLength="149" x="207.4571" y="718.8443">transformResponseData ?</text><!--link #118859 to 直接使用 responseData--><path d="M374.94,748.18 C374.475,752.638 373.91,758.061 373.355,763.392 " fill="none" id="#118859-直接使用 responseData" style="stroke: #333333; stroke-width: 1.0;"/><polygon fill="#333333" points="372.807,768.654,377.7162,760.1159,373.324,763.6808,369.7591,759.2886,372.807,768.654" style="stroke: #333333; stroke-width: 1.0;"/><text fill="#000000" font-family="sans-serif" font-size="11" lengthAdjust="spacingAndGlyphs" textLength="15" x="357.875" y="755.6104">No</text><!--link 直接使用 responseData to TRANS_RES--><path d="M373.017,805.211 C374.896,820.068 378.005,842.064 382,861 C384.656,873.589 388.775,887.925 391.43,896.717 " fill="none" id="直接使用 responseData-TRANS_RES" style="stroke: #333333; stroke-width: 1.0;"/><polygon fill="#333333" points="392.998,901.829,394.1846,892.0519,391.5326,897.0486,386.5359,894.3965,392.998,901.829" style="stroke: #333333; stroke-width: 1.0;"/><!--link #118859 to responseData = transformResponseData(responseData)--><path d="M384.763,740.278 C401.636,744.797 439.652,755.625 470,769 C504.93,784.394 542.755,806.276 568.549,822.064 " fill="none" id="#118859-responseData = transformResponseData(responseData)" style="stroke: #333333; stroke-width: 1.0;"/><polygon fill="#333333" points="572.902,824.74,567.3313,816.6179,568.643,822.1206,563.1403,823.4323,572.902,824.74" style="stroke: #333333; stroke-width: 1.0;"/><text fill="#000000" font-family="sans-serif" font-size="11" lengthAdjust="spacingAndGlyphs" textLength="21" x="539" y="791.2104">Yes</text><!--link responseData = transformResponseData(responseData) to TRANS_RES--><path d="M542.344,861.073 C497.039,874.489 437.111,892.234 409.34,900.458 " fill="none" id="responseData = transformResponseData(responseData)-TRANS_RES" style="stroke: #333333; stroke-width: 1.0;"/><polygon fill="#333333" points="404.228,901.971,413.9931,903.2531,409.0225,900.5524,411.7232,895.5818,404.228,901.971" style="stroke: #333333; stroke-width: 1.0;"/><!--link TRANS_RES to 使用 contentDataMap 映射 responseData\n生成最终数据 contentData--><path d="M394,910.352 C394,916.824 394,931.638 394,945.609 " fill="none" id="TRANS_RES-使用 contentDataMap 映射 responseData\n生成最终数据 contentData" style="stroke: #333333; stroke-width: 1.0;"/><polygon fill="#333333" points="394,950.701,398,941.701,394,945.701,390,941.701,394,950.701" style="stroke: #333333; stroke-width: 1.0;"/><!--link 使用 contentDataMap 映射 responseData\n生成最终数据 contentData to #118871--><path d="M394,1004.306 C394,1016.005 394,1029.483 394,1039.742 " fill="none" id="使用 contentDataMap 映射 responseData\n生成最终数据 contentData-#118871" style="stroke: #333333; stroke-width: 1.0;"/><polygon fill="#333333" points="394,1044.788,398,1035.788,394,1039.788,390,1035.788,394,1044.788" style="stroke: #333333; stroke-width: 1.0;"/><text fill="#000000" font-family="sans-serif" font-size="11" lengthAdjust="spacingAndGlyphs" textLength="90" x="284.3125" y="1035.2067">使用自定义 slot ?</text><!--link #118871 to 渲染表格视图--><path d="M387.806,1062.884 C373.999,1073.77 340.027,1100.556 316.011,1119.491 " fill="none" id="#118871-渲染表格视图" style="stroke: #333333; stroke-width: 1.0;"/><polygon fill="#333333" points="311.948,1122.6945,321.4923,1120.264,315.8746,1119.5991,316.5396,1113.9814,311.948,1122.6945" style="stroke: #333333; stroke-width: 1.0;"/><text fill="#000000" font-family="sans-serif" font-size="11" lengthAdjust="spacingAndGlyphs" textLength="15" x="356" y="1100.2104">No</text><!--link 渲染表格视图 to end--><path d="M290,1159.2542 C290,1170.2159 290,1184.2398 290,1194.6017 " fill="none" id="渲染表格视图-end" style="stroke: #333333; stroke-width: 1.0;"/><polygon fill="#333333" points="290,1199.6509,294,1190.6509,290,1194.6509,286,1190.6509,290,1199.6509" style="stroke: #333333; stroke-width: 1.0;"/><!--link #118871 to 挂载在 slot-scope 的 content-data --><path d="M399.943,1063.129 C412.715,1074.154 443.387,1100.629 465.157,1119.42 " fill="none" id="#118871-挂载在 slot-scope 的 content-data " style="stroke: #333333; stroke-width: 1.0;"/><polygon fill="#333333" points="469.112,1122.8335,464.9133,1113.9245,465.3272,1119.5662,459.6855,1119.9801,469.112,1122.8335" style="stroke: #333333; stroke-width: 1.0;"/><text fill="#000000" font-family="sans-serif" font-size="11" lengthAdjust="spacingAndGlyphs" textLength="21" x="445" y="1100.2104">Yes</text><!--link 挂载在 slot-scope 的 content-data  to end--><path d="M438.269,1159.0803 C393.791,1174.0553 332.039,1194.8461 304.389,1204.1554 " fill="none" id="挂载在 slot-scope 的 content-data -end" style="stroke: #333333; stroke-width: 1.0;"/><polygon fill="#333333" points="299.329,1205.859,309.1349,1206.7777,304.0676,1204.2633,306.5819,1199.196,299.329,1205.859" style="stroke: #333333; stroke-width: 1.0;"/><!--
@startuml
skinparam activity {
  roundCorner 15
  FontColor          #fff
  FontSize           14
  BackgroundColor    #0090D5
  BorderColor        #14639c
  ArrowColor         #333
}

(*) - -> "发起请求"

if "transformRequestData ?" then
  -right->[Yes] "requestData = transformRequestData(requestData)"
  - -> ===TRANSREQ===
else
  - ->[No] ===TRANSREQ===
endif

if "requestHandler ?" then
  -left->[No] "对 requestUrl 发出请求\n携带参数 requestData"
  - -> ===RESPONSE===
else
  - ->[Yes] "requestHandler(requestData)"
  - -> ===RESPONSE===
endif

if "validateResponse(response) 验证通过"
  - ->[No] "resolveRequestErrorMessage(response) \n获取错误信息并显示"
  - ->(*)
else
  - ->[Yes] "获取到原始响应数据 responseData"
  if "transformResponseData ?" then
    -right->[No] "直接使用 responseData"
    - -> ===TRANS_RES===
  else
    - ->[Yes] "responseData = transformResponseData(responseData)"
    - -> ===TRANS_RES===
  endif
endif

- -> "使用 contentDataMap 映射 responseData\n生成最终数据 contentData"

if "使用自定义 slot ?" then
  - ->[No] "渲染表格视图"
  - ->(*)
else
  - ->[Yes] "挂载在 slot-scope 的 content-data "
  - ->(*)
endif
@enduml

PlantUML version 1.2018.12(Sun Oct 21 10:15:15 UTC 2018)
(GPL source distribution)
Java Runtime: Java(TM) SE Runtime Environment
JVM: Java HotSpot(TM) 64-Bit Server VM
Java Version: 1.7.0_25-b15
Operating System: Linux
Default Encoding: UTF-8
Language: en
Country: US
--></g></svg>